<svg width="15" height="16" viewBox="0 0 15 16" fill="none" xmlns="http://www.w3.org/2000/svg">
<path d="M0.292893 13.6569C-0.0976311 14.0474 -0.0976311 14.6806 0.292893 15.0711C0.683418 15.4616 1.31658 15.4616 1.70711 15.0711L0.292893 13.6569ZM14.7279 1.63609C14.7279 1.08381 14.2802 0.636092 13.7279 0.636091L4.72792 0.636092C4.17564 0.636092 3.72792 1.08381 3.72792 1.63609C3.72792 2.18838 4.17564 2.63609 4.72792 2.63609L12.7279 2.63609L12.7279 10.6361C12.7279 11.1884 13.1756 11.6361 13.7279 11.6361C14.2802 11.6361 14.7279 11.1884 14.7279 10.6361L14.7279 1.63609ZM1.70711 15.0711L14.435 2.3432L13.0208 0.928985L0.292893 13.6569L1.70711 15.0711Z" fill="#E5E5E5"/>
</svg>
