<?xml version="1.0" standalone="no"?>
<!DOCTYPE svg PUBLIC "-//W3C//DTD SVG 20010904//EN"
 "http://www.w3.org/TR/2001/REC-SVG-20010904/DTD/svg10.dtd">
<svg version="1.0" xmlns="http://www.w3.org/2000/svg"
 width="1080.000000pt" height="1080.000000pt" viewBox="0 0 1080.000000 1080.000000"
 preserveAspectRatio="xMidYMid meet">
<metadata>
Created by potrace 1.14, written by Peter Selinger 2001-2017
</metadata>
<g transform="translate(0.000000,1080.000000) scale(0.100000,-0.100000)"
fill="#000000" stroke="none">
<path d="M974 10227 c-6 -12 -62 -123 -125 -247 -141 -279 -270 -565 -284
-630 -60 -285 -72 -387 -70 -588 3 -250 46 -539 111 -746 110 -351 315 -716
563 -1003 29 -35 50 -63 46 -63 -22 0 -130 37 -195 67 -205 95 -326 233 -490
557 -77 151 -160 347 -160 377 0 8 -4 19 -8 25 -5 5 -17 38 -28 74 l-19 65 -5
-50 c-7 -65 -4 -324 5 -400 9 -89 27 -199 50 -320 25 -128 88 -312 194 -570
154 -374 437 -700 784 -903 42 -25 76 -47 73 -49 -16 -16 -294 81 -446 155
-63 31 -119 58 -125 60 -18 8 39 -34 155 -115 215 -149 505 -352 516 -360 5
-4 17 -12 26 -18 9 -5 53 -36 99 -69 46 -32 127 -85 180 -116 88 -54 1179
-606 1349 -683 110 -50 324 -195 513 -349 214 -174 446 -427 614 -670 194
-281 381 -691 417 -918 3 -19 8 -46 11 -60 3 -14 7 -38 10 -55 2 -16 6 -46 9
-65 25 -155 31 -259 30 -515 0 -221 -17 -458 -39 -535 -2 -8 -7 -34 -10 -57
-3 -23 -19 -97 -36 -165 -17 -68 -33 -134 -35 -147 -3 -13 -10 -34 -16 -45 -6
-12 -6 -17 0 -11 5 6 59 107 119 225 61 118 148 289 195 380 47 91 131 255
188 365 152 296 332 646 505 980 113 218 234 452 343 665 171 335 244 475 254
488 6 6 7 12 3 12 -4 0 -3 6 3 13 5 6 38 66 72 132 34 66 64 124 67 128 3 5
24 -24 47 -65 24 -40 100 -170 170 -288 70 -118 131 -222 136 -230 5 -8 67
-114 138 -235 71 -121 169 -287 217 -370 48 -82 132 -224 185 -315 270 -458
434 -736 450 -764 10 -17 68 -116 130 -221 62 -104 121 -206 132 -225 11 -19
48 -82 83 -140 34 -58 88 -150 120 -205 192 -330 694 -614 1220 -691 58 -8
1375 -12 1380 -4 2 3 -13 35 -34 70 -21 36 -109 187 -196 335 -87 149 -163
279 -169 290 -6 11 -13 22 -16 25 -3 3 -10 14 -16 25 -10 19 -458 785 -666
1140 -55 94 -109 186 -121 205 -11 19 -28 49 -38 65 -10 17 -24 41 -32 55 -49
88 -435 745 -463 787 -19 29 -34 55 -34 58 0 3 -46 83 -101 178 -56 94 -110
186 -119 202 -30 52 -112 191 -255 434 -75 129 -145 248 -155 265 -10 17 -48
83 -85 146 -38 63 -82 140 -100 170 -17 30 -85 145 -150 255 -65 110 -127 216
-138 235 -10 19 -47 82 -82 140 -34 58 -73 125 -87 150 -14 25 -63 108 -108
185 -46 77 -91 154 -100 170 -10 17 -64 109 -120 205 -56 96 -111 189 -120
205 -10 17 -55 93 -100 170 -46 77 -92 156 -104 177 -11 20 -142 243 -291 497
-148 253 -298 509 -332 568 -35 59 -66 109 -70 110 -7 2 -173 -270 -281 -458
-12 -22 -93 -160 -180 -307 -87 -147 -178 -301 -203 -342 -24 -41 -48 -83 -54
-92 -5 -9 -34 -59 -64 -110 -30 -51 -65 -110 -78 -131 l-24 -39 -112 114
c-235 238 -454 414 -724 581 -51 31 -95 57 -98 57 -3 0 -22 11 -43 23 -196
124 -628 302 -1362 562 -410 145 -649 222 -837 269 -127 32 -266 77 -365 117
-18 8 -91 43 -163 79 -117 60 -185 101 -424 257 -41 26 -113 86 -160 133 -226
223 -314 461 -306 830 2 80 6 163 9 185 13 83 28 152 47 214 21 65 22 86 3 48z"/>
<path d="M20 5967 c0 -4 27 -40 59 -80 33 -40 142 -175 243 -302 393 -494 707
-752 1258 -1033 254 -130 294 -151 426 -234 141 -90 360 -223 394 -240 58 -29
359 -234 380 -258 3 -3 23 -19 45 -36 97 -71 307 -273 436 -418 24 -27 51 -57
59 -65 107 -113 351 -450 452 -626 140 -246 284 -638 322 -880 9 -64 26 -206
31 -279 5 -54 5 -409 1 -461 -8 -95 -17 -192 -21 -215 -3 -14 -7 -43 -10 -65
-2 -22 -7 -53 -11 -69 -12 -54 14 -17 46 67 47 123 93 318 106 447 1 19 6 62
10 95 7 60 7 388 0 455 -2 19 -7 71 -11 115 -4 44 -9 87 -10 96 -2 9 -6 40
-10 70 -8 68 -41 257 -61 352 -15 71 -82 284 -108 342 -66 145 -112 242 -121
255 -7 8 -29 47 -50 85 -118 215 -300 451 -505 655 -191 189 -251 242 -415
367 -114 88 -242 156 -875 472 -742 370 -771 386 -1016 561 -50 36 -100 71
-110 78 -11 7 -86 60 -169 119 -153 108 -307 216 -427 298 -53 37 -300 283
-330 329 -4 6 -8 7 -8 3z"/>
<path d="M3155 2658 c-94 -139 -172 -255 -175 -258 -3 -3 -30 -43 -60 -90 -30
-47 -57 -87 -60 -90 -3 -3 -95 -139 -205 -303 -245 -365 -301 -449 -636 -947
-146 -217 -269 -400 -273 -407 -5 -10 52 -11 261 -8 271 5 335 8 543 21 158 9
157 9 490 39 36 3 81 8 100 10 19 3 55 7 80 9 216 21 510 77 529 100 15 18 66
186 89 297 25 115 29 141 48 299 4 42 4 307 -1 369 -5 62 -15 144 -20 172 -3
13 -7 35 -10 49 -3 14 -7 34 -9 45 -3 11 -14 67 -26 125 -45 229 -108 372
-239 550 -47 64 -240 270 -253 270 -2 0 -80 -114 -173 -252z"/>
</g>
</svg>
