<svg width="113" height="85" viewBox="0 0 113 85" fill="none" xmlns="http://www.w3.org/2000/svg">
<path d="M5.928 83.296H2.436L1.836 85H0.408L3.396 76.648H4.98L7.968 85H6.528L5.928 83.296ZM5.544 82.18L4.188 78.304L2.82 82.18H5.544ZM16.4312 80.716C16.8792 80.796 17.2592 81.032 17.5712 81.424C17.8832 81.816 18.0392 82.26 18.0392 82.756C18.0392 83.18 17.9272 83.564 17.7032 83.908C17.4872 84.244 17.1712 84.512 16.7552 84.712C16.3392 84.904 15.8552 85 15.3032 85H11.9672V76.66H15.1472C15.7152 76.66 16.2032 76.756 16.6112 76.948C17.0192 77.14 17.3272 77.4 17.5352 77.728C17.7432 78.048 17.8472 78.408 17.8472 78.808C17.8472 79.288 17.7192 79.688 17.4632 80.008C17.2072 80.328 16.8632 80.564 16.4312 80.716ZM13.3352 80.164H15.0272C15.4752 80.164 15.8232 80.064 16.0712 79.864C16.3272 79.656 16.4552 79.36 16.4552 78.976C16.4552 78.6 16.3272 78.308 16.0712 78.1C15.8232 77.884 15.4752 77.776 15.0272 77.776H13.3352V80.164ZM15.1832 83.884C15.6472 83.884 16.0112 83.772 16.2752 83.548C16.5392 83.324 16.6712 83.012 16.6712 82.612C16.6712 82.204 16.5312 81.88 16.2512 81.64C15.9712 81.4 15.5992 81.28 15.1352 81.28H13.3352V83.884H15.1832ZM28.8858 76.66V85H27.5178V81.352H23.5938V85H22.2258V76.66H23.5938V80.236H27.5178V76.66H28.8858ZM34.7547 76.66V85H33.3867V76.66H34.7547ZM46.4388 76.66L43.3068 85H41.7228L38.5788 76.66H40.0428L42.5148 83.596L44.9988 76.66H46.4388ZM56.4628 76.66L53.7028 81.976V85H52.3348V81.976L49.5628 76.66H51.0868L53.0188 80.752L54.9508 76.66H56.4628ZM65.2764 83.296H61.7844L61.1844 85H59.7564L62.7444 76.648H64.3284L67.3164 85H65.8764L65.2764 83.296ZM64.8924 82.18L63.5364 78.304L62.1684 82.18H64.8924ZM75.9116 85L72.6836 81.268V85H71.3156V76.66H72.6836V80.464L75.9236 76.66H77.6396L74.0156 80.836L77.6996 85H75.9116ZM86.9974 76.66V77.776H84.7774V85H83.4094V77.776H81.1774V76.66H86.9974ZM92.4508 76.66V85H91.0828V76.66H92.4508Z" fill="white"/>
<path d="M42.5564 26.1865L49.232 15.0874L82.6085 71.0519H72.7635C70.8913 70.882 69.0811 70.3899 67.4463 69.6064C65.8115 68.8229 64.3872 67.7649 63.2627 66.4986C58.584 58.6844 53.9059 50.8738 49.2284 43.0666L35.922 68.4491C37.2026 64.2974 37.382 60.2076 36.5494 55.9765C36.3271 54.8525 35.4899 52.1325 33.2671 48.9994C31.2592 46.1783 28.568 43.7416 25.3671 41.8464C23.8577 41.1446 21.7622 40.1468 19.292 38.8965C16.8505 37.6613 15.3034 37.0437 13.5754 35.861L6.7868 31.2116C8.32494 32.131 10.051 32.8064 11.8796 33.2042C10.3216 32.3983 8.94278 31.3711 7.805 30.1687C6.52182 28.8174 5.56139 27.2715 4.97627 25.6155C3.57104 22.5659 2.99123 19.2928 3.27868 16.0326C3.73226 17.6325 4.37665 19.1902 5.20214 20.682C6.31176 22.6851 7.08975 23.3644 7.805 23.8122C8.51651 24.2544 9.32382 24.5765 10.182 24.7604C7.75677 22.1328 6.05608 19.0875 5.20214 15.8432C4.52911 12.5087 4.37985 10.1484 5.20214 6.8374C5.91918 4.80872 7.465 1.9295 8.48439 0C7.65119 2.31211 7.57258 4.76918 8.25673 7.1154C8.95835 8.92585 10.4018 10.4697 12.3313 11.4733C14.3608 12.9035 16.765 13.9112 19.3476 14.4141C20.6633 14.8154 22.6854 15.4525 25.1197 16.3121C30.7933 18.3122 33.9358 19.4423 37.2288 21.6242C39.2241 22.9533 41.0138 24.4859 42.5564 26.1865Z" fill="#F2A345"/>
<path d="M14.0463 72.265L26.0433 54.7421C28.2041 56.5356 29.5084 58.7002 29.8068 60.9879C30.6664 64.2792 30.4828 67.6706 29.2666 70.9635C28.6649 71.1178 28.0513 71.2505 27.4287 71.3611C26.6987 71.4908 25.9582 71.5909 25.2117 71.661C22.7612 71.9032 21.1104 72.0662 18.63 72.1737C17.4067 72.2225 15.8569 72.2683 14.0463 72.265Z" fill="#F2A345"/>
<path d="M31.7324 71.5016C32.2446 68.7093 32.2898 65.87 31.8667 63.0671C31.3993 60.6193 30.4857 58.2478 29.1588 56.0371C27.6301 53.6196 25.7541 51.3714 23.5732 49.3436C22.031 47.9626 20.3008 46.741 18.419 45.7044C16.4746 44.6395 16.1458 44.1313 12.6495 42.4501C9.86871 41.1116 7.37883 39.3102 5.35296 37.215C4.11299 36.0494 1.62082 32.5468 0 30.928L3.05509 34.1079L5.35296 35.6934L8.74495 38.0372L9.75424 38.7358C10.0742 38.9511 10.5744 39.2787 11.2178 39.6452C12.0291 40.1074 12.5629 40.3452 13.749 40.927C14.8891 41.4879 14.7459 41.4401 15.787 41.9531C17.4556 42.7758 20.5365 44.2251 21.3814 44.6933C21.8145 44.9326 22.1698 45.142 22.5781 45.4023C23.5021 46.0041 24.3621 46.6733 25.1482 47.4021C26.2087 48.3729 27.7058 49.731 29.1712 51.8131C31.1968 54.6939 32.0683 57.298 32.3387 58.5888C33.2364 62.8796 33.5954 67.8852 31.7377 71.5016H31.7324Z" fill="#F2A345"/>
<path d="M42.5564 26.1865L49.232 15.0874L82.6085 71.0519H72.7635C70.8913 70.882 69.0811 70.3899 67.4463 69.6064C65.8115 68.8229 64.3872 67.7649 63.2627 66.4986C58.584 58.6844 53.9059 50.8738 49.2284 43.0666L35.922 68.4491C37.2026 64.2974 37.382 60.2076 36.5494 55.9765C36.3271 54.8525 35.4899 52.1325 33.2671 48.9994C31.2592 46.1783 28.568 43.7416 25.3671 41.8464C23.8577 41.1446 21.7622 40.1468 19.292 38.8965C16.8505 37.6613 15.3034 37.0437 13.5754 35.861L6.7868 31.2116C8.32494 32.131 10.051 32.8064 11.8796 33.2042C10.3216 32.3983 8.94278 31.3711 7.805 30.1687C6.52182 28.8174 5.56139 27.2715 4.97627 25.6155C3.57104 22.5659 2.99123 19.2928 3.27868 16.0326C3.73226 17.6325 4.37665 19.1902 5.20214 20.682C6.31176 22.6851 7.08975 23.3644 7.805 23.8122C8.51651 24.2544 9.32382 24.5765 10.182 24.7604C7.75677 22.1328 6.05608 19.0875 5.20214 15.8432C4.52911 12.5087 4.37985 10.1484 5.20214 6.8374C5.91918 4.80872 7.465 1.9295 8.48439 0C7.65119 2.31211 7.57258 4.76918 8.25673 7.1154C8.95835 8.92585 10.4018 10.4697 12.3313 11.4733C14.3608 12.9035 16.765 13.9112 19.3476 14.4141C20.6633 14.8154 22.6854 15.4525 25.1197 16.3121C30.7933 18.3122 33.9358 19.4423 37.2288 21.6242C39.2241 22.9533 41.0138 24.4859 42.5564 26.1865Z" fill="#F2A345"/>
<path d="M14.0463 72.265L26.0433 54.7421C28.2041 56.5356 29.5084 58.7002 29.8068 60.9879C30.6664 64.2792 30.4828 67.6706 29.2666 70.9635C28.6649 71.1178 28.0513 71.2505 27.4287 71.3611C26.6987 71.4908 25.9582 71.5909 25.2117 71.661C22.7612 71.9032 21.1104 72.0662 18.63 72.1737C17.4067 72.2225 15.8569 72.2683 14.0463 72.265Z" fill="#F2A345"/>
</svg>
