<svg width="42" height="42" viewBox="0 0 42 42" fill="none" xmlns="http://www.w3.org/2000/svg">
<path d="M0 20.8017C0.00240579 31.0362 7.39888 39.7505 17.4448 41.3544V26.8142H12.1991V20.8017H17.451V16.2247C17.2162 14.0559 17.9524 11.8944 19.46 10.3264C20.9675 8.75849 23.0902 7.94657 25.2522 8.1109C26.8041 8.13612 28.352 8.27518 29.8837 8.52699V13.6428H27.2702C26.3705 13.5242 25.4659 13.8232 24.8113 14.4556C24.1567 15.0879 23.823 15.9852 23.9041 16.8946V20.8017H29.6336L28.7176 26.8162H23.9041V41.3544C34.7685 39.6268 42.387 29.6431 41.2403 18.6361C40.0936 7.629 30.5832 -0.548084 19.5989 0.0287201C8.61458 0.605524 0.00174608 9.73429 0 20.8017Z" fill="white"/>
</svg>
