<svg width="39" height="38" viewBox="0 0 39 38" fill="none" xmlns="http://www.w3.org/2000/svg">
<path d="M19.1349 37.5248C13.9047 37.5248 13.2882 37.4978 11.2471 37.4104C9.65543 37.3592 8.08437 37.0425 6.60155 36.4741C4.03601 35.4971 2.00734 33.5111 1.0099 31.0001C0.451385 29.5438 0.150141 28.0051 0.119062 26.4499C0 24.4567 0 23.8034 0 18.7247C0 13.5919 0.0276394 12.9927 0.119062 11.0058C0.150821 9.45266 0.452055 7.91613 1.0099 6.46179C2.00626 3.94747 4.03822 1.95978 6.60793 0.985706C8.09332 0.436854 9.66388 0.141291 11.2513 0.111863C13.2818 -0.000488281 13.9494 -0.000488281 19.1349 -0.000488281C24.4077 -0.000488281 25.0136 0.0265592 27.0228 0.111863C28.6144 0.141546 30.1891 0.437077 31.679 0.985706C34.2479 1.96088 36.2795 3.94819 37.277 6.46179C37.8449 7.93732 38.1477 9.49788 38.1721 11.0744C38.2911 13.0676 38.2911 13.7188 38.2911 18.7955C38.2911 23.8721 38.2614 24.5379 38.1721 26.5082C38.1404 28.0649 37.8385 29.6049 37.2791 31.0625C36.2791 33.5753 34.2474 35.562 31.679 36.5386C30.1912 37.0841 28.6197 37.3789 27.0313 37.4104C25.0009 37.5248 24.3354 37.5248 19.1349 37.5248ZM19.0627 3.29307C13.8622 3.29307 13.3222 3.31803 11.2917 3.4075C10.0798 3.42321 8.87963 3.64207 7.74327 4.05456C6.06525 4.68291 4.73744 5.977 4.0885 7.61651C3.66373 8.74064 3.44005 9.92799 3.42728 11.1264C3.3146 13.1425 3.3146 13.671 3.3146 18.7247C3.3146 23.7181 3.33373 24.3236 3.42728 26.3272C3.44631 27.5135 3.66986 28.6882 4.0885 29.8017C4.7384 31.4402 6.06597 32.7333 7.74327 33.3616C8.87885 33.7768 10.0795 33.9958 11.2917 34.0087C13.3498 34.1252 13.892 34.1252 19.0627 34.1252C24.278 34.1252 24.818 34.1002 26.8314 34.0087C28.0442 33.9942 29.2453 33.7753 30.382 33.3616C32.0499 32.7278 33.369 31.4377 34.0177 29.8059C34.4416 28.6808 34.6653 27.4929 34.6789 26.2939H34.7023C34.7937 24.3048 34.7937 23.7743 34.7937 18.6914C34.7937 13.6086 34.7703 13.0739 34.6789 11.0869C34.6598 9.90192 34.4363 8.7286 34.0177 7.61651C33.3705 5.98237 32.0512 4.68974 30.382 4.05456C29.2455 3.63999 28.0443 3.42107 26.8314 3.4075C24.7755 3.29307 24.2376 3.29307 19.0627 3.29307ZM19.1349 28.3349C15.1591 28.3374 11.5733 25.9958 10.0498 22.4021C8.52633 18.8083 9.36529 14.6704 12.1754 11.918C14.9855 9.16569 19.2133 8.34111 22.887 9.82886C26.5607 11.3166 28.9567 14.8236 28.9575 18.7143C28.9517 24.022 24.5588 28.3246 19.1349 28.3349ZM19.1349 12.4684C15.6123 12.4684 12.7566 15.2629 12.7566 18.7102C12.7566 22.1574 15.6123 24.9519 19.1349 24.9519C22.6576 24.9519 25.5132 22.1574 25.5132 18.7102C25.5051 15.2663 22.6542 12.4764 19.1349 12.4684ZM29.3402 10.985C28.0761 10.9804 27.0545 9.97503 27.0568 8.73796C27.0592 7.50089 28.0846 6.49925 29.3487 6.49925C30.6129 6.49925 31.6383 7.50087 31.6407 8.73794C31.6413 9.33478 31.3989 9.90728 30.9673 10.3289C30.5356 10.7506 29.9501 10.9866 29.3402 10.985Z" fill="white"/>
</svg>
