<svg width="48" height="39" viewBox="0 0 48 39" fill="none" xmlns="http://www.w3.org/2000/svg">
<path d="M41.8881 6.03966C43.9229 4.83196 45.4454 2.9303 46.1713 0.689735C44.2593 1.81606 42.1673 2.60948 39.9859 3.03568C36.9615 -0.140636 32.1697 -0.913606 28.288 1.14868C24.4062 3.21097 22.3956 7.59797 23.3796 11.8583C15.5477 11.4679 8.25088 7.79499 3.30492 1.75341C0.723723 6.17357 2.04277 11.824 6.3193 14.6662C4.77286 14.6169 3.26072 14.2012 1.90896 13.4538C1.90896 13.4944 1.90896 13.535 1.90896 13.5755C1.90985 18.1799 5.17841 22.146 9.7241 23.0585C8.28969 23.4459 6.78509 23.5029 5.3251 23.2252C6.60349 27.1628 10.2588 29.8603 14.425 29.9408C10.9744 32.6296 6.71307 34.0877 2.32661 34.0806C1.54912 34.0817 0.772231 34.0373 0 33.9476C4.45436 36.7894 9.63868 38.2978 14.9334 38.2924C22.2997 38.3427 29.3789 35.4595 34.5876 30.2879C39.7962 25.1162 42.6997 18.0877 42.6485 10.7744C42.6485 10.3552 42.6386 9.9383 42.619 9.52365C44.5267 8.15485 46.1731 6.45916 47.481 4.51626C45.7037 5.29838 43.8185 5.81188 41.8881 6.03966Z" fill="white"/>
</svg>
